<svg width="1440" height="1440" version="1.1" xmlns="http://www.w3.org/2000/svg" desc="Created with imagetracer.js version 1.2.6" ><path fill="rgb(146,33,41)" stroke="rgb(146,33,41)" stroke-width="1" opacity="0.9725490196078431" d="M 843.5 559 L 847 561.5 L 852 569.5 L 853 576.5 L 855 578.5 L 855 590.5 Q 851.8 592.8 853 599.5 Q 849.3 602.6 849 608 Q 846.3 606.9 847 609.5 L 845 613 L 841 614 Q 842.3 617.3 837.5 616 L 835 617 Q 836.3 620.3 831.5 619 L 828.5 622 Q 822.5 621 820.5 624 L 811.5 624 Q 809.5 621 803.5 622 L 801 619.5 L 801.5 618 L 805.5 620 L 823.5 620 Q 837.3 616.8 845 607.5 L 851 593.5 L 852 579.5 L 849 568.5 L 843.5 559 Z " /><path fill="rgb(146,33,41)" stroke="rgb(146,33,41)" stroke-width="1" opacity="0.9725490196078431" d="M 468.5 569 L 471 575.5 L 470 576.5 L 470 792.5 Q 472.3 793.7 471 798.5 L 468.5 804 L 466.5 805 L 440.5 805 L 439.5 804 L 427.5 804 L 426.5 805 L 416.5 805 L 409 800.5 L 468 800 L 468 664.5 L 467 663.5 L 467 640.5 Q 469.8 638.7 468 632.5 L 467 631.5 L 467 608.5 Q 469.8 606.7 468 600.5 Q 465.2 598.8 467 592.5 Q 469.8 590.8 468 584.5 L 467 579.5 L 468 577.5 L 467 572.5 L 468.5 569 Z " /><path fill="rgb(146,33,41)" stroke="rgb(146,33,41)" stroke-width="1" opacity="0.9725490196078431" d="M 310.5 571 L 312 573.5 L 310 572.5 L 310.5 571 Z " /><path fill="rgb(146,33,41)" stroke="rgb(146,33,41)" stroke-width="1" opacity="0.9725490196078431" d="M 313.5 576 Q 315.8 575.3 315 577.5 L 313.5 576 Z " /><path fill="rgb(146,33,41)" stroke="rgb(146,33,41)" stroke-width="1" opacity="0.9725490196078431" d="M 315.5 579 L 318 580.5 L 321 585.5 L 318 583.5 L 315.5 579 Z " /><path fill="rgb(146,33,41)" stroke="rgb(146,33,41)" stroke-width="1" opacity="0.9725490196078431" d="M 735.5 580 L 741.5 580 L 746 583.5 L 746 653.5 L 748 657.5 L 748 698.5 L 753.5 706 L 758.5 706 L 762.5 709 L 771 709 Q 769.9 712.5 777.5 711 Q 784.4 712.6 787 718.5 L 787 723 Q 784.3 721.9 785 724.5 L 780.5 729 L 774.5 732 Q 770.3 731.3 769.5 734 L 762.5 734 L 758.5 737 L 755.5 737 L 751.5 741 L 747.5 739 L 745.5 741 L 734.5 744 L 726 752.5 L 723 760.5 L 719 776.5 L 719 781.5 L 715 794.5 L 716 797 L 720 799.5 L 717.5 798 L 714 798.5 L 716 803.5 L 714 814.5 L 712 818.5 L 712 830.5 L 709 834.5 L 709 846.5 L 706 850.5 L 706 858 L 701 859 Q 700.7 853.6 697 850.5 L 697 839.5 L 695 837.5 L 694 829.5 L 695 828.5 L 695 816.5 L 692 811.5 L 692 793.5 L 689 789.5 L 689 773.5 Q 683.8 768.8 686 756.5 L 683 751 L 681 751 Q 682.1 748.3 679.5 749 Q 678.2 746.8 673.5 748 L 671 752.5 Q 672.5 758 670 759.5 L 670 791.5 L 671 795.5 L 669 802 Q 663.6 806.4 651.5 805 L 650.5 804 L 635.5 804 L 634.5 805 L 626.5 805 L 620 802 L 620.5 800 L 667 800 L 667 743.5 L 651.5 736 L 614 723 L 613.5 726 L 611 722.5 L 610 714.5 L 604 702.5 L 609 706.5 L 613.5 714 L 646.5 705 L 666 697.5 L 666 646.5 L 667.5 646 L 670 649.5 L 670 697 L 675.5 698 L 683 692.5 L 684 687.5 L 684 672.5 L 686 666.5 L 686 594.5 L 689.5 591 L 696.5 588 L 707.5 588 L 713.5 585 L 721.5 585 L 725.5 582 Q 733.5 584 735.5 580 Z " /><path fill="rgb(146,33,41)" stroke="rgb(146,33,41)" stroke-width="1" opacity="0.9725490196078431" d="M 322.5 588 L 323.5 590 Q 320.7 590.7 322.5 588 Z " /><path fill="rgb(146,33,41)" stroke="rgb(146,33,41)" stroke-width="1" opacity="0.9725490196078431" d="M 324.5 591 Q 326.8 590.3 326 592.5 L 324.5 591 Z " /><path fill="rgb(146,33,41)" stroke="rgb(146,33,41)" stroke-width="1" opacity="0.9725490196078431" d="M 330.5 599 L 331.5 601 L 330.5 599 Z " /><path fill="rgb(146,33,41)" stroke="rgb(146,33,41)" stroke-width="1" opacity="0.9725490196078431" d="M 333.5 602 L 334.5 604 Q 331.7 604.7 333.5 602 Z " /><path fill="rgb(146,33,41)" stroke="rgb(146,33,41)" stroke-width="1" opacity="0.9725490196078431" d="M 785.5 608 Q 787.8 607.3 787 609.5 L 789.5 613 Q 787.3 613.8 788 611.5 L 785.5 608 Z " /><path fill="rgb(146,33,41)" stroke="rgb(146,33,41)" stroke-width="1" opacity="0.9725490196078431" d="M 339.5 610 L 341 612.5 L 339 613 L 339.5 610 Z " /><path fill="rgb(146,33,41)" stroke="rgb(146,33,41)" stroke-width="1" opacity="0.9725490196078431" d="M 792.5 614 L 793.5 616 L 792.5 614 Z " /><path fill="rgb(146,33,41)" stroke="rgb(146,33,41)" stroke-width="1" opacity="0.9725490196078431" d="M 795.5 616 L 800 618.5 L 797.5 619 L 795.5 616 Z " /><path fill="rgb(146,33,41)" stroke="rgb(146,33,41)" stroke-width="1" opacity="0.9725490196078431" d="M 348.5 622 L 352 626.5 L 350.5 627 Q 346.8 625.2 348.5 622 Z " /><path fill="rgb(146,33,41)" stroke="rgb(146,33,41)" stroke-width="1" opacity="0.9725490196078431" d="M 364.5 644 L 365.5 646 L 364.5 644 Z " /><path fill="rgb(146,33,41)" stroke="rgb(146,33,41)" stroke-width="1" opacity="0.9725490196078431" d="M 852.5 646 Q 857.8 649.7 859 657.5 L 856 655.5 L 853.5 650 L 853 660.5 L 854 660.5 Q 853.3 658.3 855.5 659 L 857 658.5 L 855 661.5 L 855 799.5 L 852 804 L 849.5 805 L 833.5 805 L 830.5 804 L 803.5 805 L 799 801.5 L 799.5 800 L 852 800 L 852 664.5 L 851 663.5 L 851 647.5 L 852.5 646 Z " /><path fill="rgb(146,33,41)" stroke="rgb(146,33,41)" stroke-width="1" opacity="0.9725490196078431" d="M 1040 646 L 1044 648.5 L 1043 653 Q 1039.7 651.7 1041 656.5 L 1035 665.5 L 1035 668.5 L 1030 677.5 L 1030 681.5 Q 1026.3 684.6 1026 690 Q 1022.3 688.6 1024 694.5 L 1020.5 699 Q 1017.5 698.1 1019 702.5 L 1021 702.5 L 1013 717.5 L 1013 723.5 L 1010 726.5 L 1010 731.5 L 1007 735.5 L 1007 738.5 L 1004 741.5 L 1004 744.5 L 1002 746.5 L 1002 749.5 L 998 757.5 L 999 758.5 L 996 761.5 Q 996.6 767.1 993 768.5 L 993 773 Q 990.3 771.9 991 774.5 Q 988.7 775.7 990 780.5 L 987 785.5 L 987 790.5 L 980.5 802 L 974.5 805 L 948.5 805 L 944.5 804 L 941.5 805 L 939.5 805 L 936.5 804 L 933.5 805 L 928.5 804 L 924 800.5 L 978 800 L 985 779.5 L 1003 737.5 L 1003 734.5 L 1008 725.5 L 1009 720.5 L 1024 687.5 L 1030 670.5 L 1032 668.5 L 1033 662.5 L 1040 646 Z " /><path fill="rgb(146,33,41)" stroke="rgb(146,33,41)" stroke-width="1" opacity="0.9725490196078431" d="M 915 647 L 917 647 Q 915.9 649.7 918.5 649 Q 921.8 650.8 920 657.5 Q 923.6 659.4 923 664 Q 920.3 665.1 921 662.5 L 915 647 Z " /><path fill="rgb(146,33,41)" stroke="rgb(146,33,41)" stroke-width="1" opacity="0.9725490196078431" d="M 607 649 Q 611.6 647.8 613 650.5 L 611.5 653 L 607 650.5 L 607 649 Z " /><path fill="rgb(146,33,41)" stroke="rgb(146,33,41)" stroke-width="1" opacity="0.9725490196078431" d="M 372.5 655 L 374 657.5 L 373 657.5 L 372.5 655 Z " /><path fill="rgb(146,33,41)" stroke="rgb(146,33,41)" stroke-width="1" opacity="0.9725490196078431" d="M 300 660 Q 303.8 658.5 303 661.5 L 305.5 665 Q 303.2 659.8 301 663.5 L 301 683.5 L 303 691.5 L 303 701.5 L 302 702.5 L 301 716.5 L 302 717.5 L 302 745.5 L 303 746.5 L 303 779.5 Q 300.3 781.2 302 787.5 Q 305 790.5 304 797.5 L 299.5 804 Q 296 806.5 288.5 805 L 287.5 804 L 267.5 804 Q 262.9 801.1 254.5 802 L 250.5 804 L 242.5 805 L 237 801.5 L 237.5 800 L 300 800 L 300 660 Z " /><path fill="rgb(146,33,41)" stroke="rgb(146,33,41)" stroke-width="1" opacity="0.9725490196078431" d="M 923.5 666 L 926 672 Q 923.3 673.1 924 670.5 L 923.5 666 Z " /><path fill="rgb(146,33,41)" stroke="rgb(146,33,41)" stroke-width="1" opacity="0.9725490196078431" d="M 926 675 Q 929.3 673.7 928 678.5 L 927 678.5 L 926 675 Z " /><path fill="rgb(146,33,41)" stroke="rgb(146,33,41)" stroke-width="1" opacity="0.9725490196078431" d="M 1202.5 675 L 1207 680.5 L 1205.5 681 L 1202 676.5 L 1202.5 675 Z " /><path fill="rgb(146,33,41)" stroke="rgb(146,33,41)" stroke-width="1" opacity="0.9725490196078431" d="M 389.5 677 L 392.5 682 L 394 681.5 L 393.5 684 Q 391.3 684.8 392 682.5 L 389 678.5 L 389.5 677 Z " /><path fill="rgb(146,33,41)" stroke="rgb(146,33,41)" stroke-width="1" opacity="0.9725490196078431" d="M 928.5 680 L 931 681 L 930.5 685 Q 926.8 683.2 928.5 680 Z " /><path fill="rgb(146,33,41)" stroke="rgb(146,33,41)" stroke-width="1" opacity="0.9725490196078431" d="M 1207 683 Q 1209.7 681.9 1209 684.5 L 1213 691.5 L 1211 692.5 L 1207 683 Z " /><path fill="rgb(146,33,41)" stroke="rgb(146,33,41)" stroke-width="1" opacity="0.9725490196078431" d="M 567.5 686 Q 590.3 684.7 600 696.5 Q 600.8 698.8 598.5 698 L 591.5 692 L 588.5 692 L 583.5 689 L 564.5 689 L 560.5 692 Q 555.3 690.8 554 693.5 Q 554.8 695.8 552.5 695 L 543 705.5 L 543 709.5 L 540 713.5 L 539.5 738 L 537 731.5 L 537 714.5 Q 540.3 699.8 550.5 692 L 558.5 688 L 567.5 686 Z " /><path fill="rgb(146,33,41)" stroke="rgb(146,33,41)" stroke-width="1" opacity="0.9725490196078431" d="M 1120.5 686 L 1125 686.5 L 1120.5 687 L 1120.5 686 Z " /><path fill="rgb(146,33,41)" stroke="rgb(146,33,41)" stroke-width="1" opacity="0.9725490196078431" d="M 931.5 687 Q 933.8 686.3 933 688.5 L 934 692.5 L 933 692.5 L 931.5 687 Z " /><path fill="rgb(146,33,41)" stroke="rgb(146,33,41)" stroke-width="1" opacity="0.9725490196078431" d="M 1112.5 687 L 1119 687.5 L 1109.5 692 L 1106.5 692 L 1103.5 695 L 1100 695 L 1098.5 698 L 1094 701.5 L 1092 704.5 L 1089 709.5 L 1089 738 Q 1085.7 739.3 1087 734.5 L 1085 730.5 L 1085 716.5 L 1090 702.5 L 1097.5 694 L 1112.5 687 Z " /><path fill="rgb(146,33,41)" stroke="rgb(146,33,41)" stroke-width="1" opacity="0.9725490196078431" d="M 1128.5 687 L 1134 688.5 L 1132.5 689 L 1128.5 688 L 1128.5 687 Z " /><path fill="rgb(146,33,41)" stroke="rgb(146,33,41)" stroke-width="1" opacity="0.9725490196078431" d="M 766.5 688 L 794.5 688 L 796 689.5 L 795.5 692 L 769.5 692 L 766.5 688 Z " /><path fill="rgb(146,33,41)" stroke="rgb(146,33,41)" stroke-width="1" opacity="0.9725490196078431" d="M 1138.5 690 L 1142 691.5 L 1140.5 691 Q 1137.5 691.5 1138.5 690 Z " /><path fill="rgb(146,33,41)" stroke="rgb(146,33,41)" stroke-width="1" opacity="0.9725490196078431" d="M 405.5 693 L 406 696.5 L 403 698 Q 402 695 405 696 L 405.5 693 Z " /><path fill="rgb(146,33,41)" stroke="rgb(146,33,41)" stroke-width="1" opacity="0.9725490196078431" d="M 934 694 L 937 695.5 L 937 700 Q 939.7 698.9 939 701.5 L 944 713.5 L 944 715.5 L 945 719.5 L 949.5 726 L 951 726.5 L 951 732 Q 948.3 733.1 949 730.5 L 934 694 Z " /><path fill="rgb(146,33,41)" stroke="rgb(146,33,41)" stroke-width="1" opacity="0.9725490196078431" d="M 1212 694 L 1215 695.5 L 1214.5 702 L 1212 694 Z " /><path fill="rgb(146,33,41)" stroke="rgb(146,33,41)" stroke-width="1" opacity="0.9725490196078431" d="M 601.5 698 L 603.5 701 L 601 699.5 L 601.5 698 Z " /><path fill="rgb(146,33,41)" stroke="rgb(146,33,41)" stroke-width="1" opacity="0.9725490196078431" d="M 1215.5 703 L 1218 705.5 L 1219 730.5 L 1218 731.5 L 1218 745.5 Q 1213.3 748.3 1215 757.5 Q 1211.8 759.3 1212 764.5 L 1204 776 L 1201 777.5 L 1191.5 788 L 1188.5 790 L 1177.5 798 L 1173 799 Q 1174.1 801.7 1171.5 801 L 1166.5 802 L 1162.5 805 L 1157.5 805 L 1155.5 807 L 1139.5 808 L 1136.5 810 L 1115.5 810 L 1111.5 808 L 1103.5 807 L 1101.5 807 L 1095.5 807 Q 1094.3 803.8 1088.5 805 L 1084.5 802 L 1081.5 802 Q 1078.7 798.3 1072.5 798 L 1067.5 794 L 1063 793 Q 1064.1 790.3 1061.5 791 L 1060 788.5 L 1061.5 789 L 1082.5 800 L 1096.5 804 L 1109.5 805 L 1110.5 806 L 1138.5 806 L 1139.5 805 L 1146.5 805 L 1156.5 803 L 1165.5 800 Q 1181.3 793.8 1193 783.5 Q 1205.5 772.5 1212 755.5 L 1216 739.5 L 1216 709.5 Q 1213.4 707.9 1215.5 703 Z " /><path fill="rgb(146,33,41)" stroke="rgb(146,33,41)" stroke-width="1" opacity="0.9725490196078431" d="M 798.5 716 L 806 717.5 Q 802.8 721.1 796 720 Q 794.5 716.3 797.5 717 L 798.5 716 Z " /><path fill="rgb(146,33,41)" stroke="rgb(146,33,41)" stroke-width="1" opacity="0.9725490196078431" d="M 540 739 L 543 740.5 L 546 746.5 L 544 747 L 540 739 Z " /><path fill="rgb(146,33,41)" stroke="rgb(146,33,41)" stroke-width="1" opacity="0.9725490196078431" d="M 1088.5 739 L 1091 740 L 1090.5 744 L 1088.5 739 Z " /><path fill="rgb(146,33,41)" stroke="rgb(146,33,41)" stroke-width="1" opacity="0.9725490196078431" d="M 546.5 748 L 549 749.5 L 547.5 750 L 546.5 748 Z " /><path fill="rgb(146,33,41)" stroke="rgb(146,33,41)" stroke-width="1" opacity="0.9725490196078431" d="M 492 771 Q 495 770 494 773 Q 491 774 492 771 Z " /><path fill="rgb(146,33,41)" stroke="rgb(146,33,41)" stroke-width="1" opacity="0.9725490196078431" d="M 495.5 774 L 497 776.5 L 495 775.5 L 495.5 774 Z " /><path fill="rgb(146,33,41)" stroke="rgb(146,33,41)" stroke-width="1" opacity="0.9725490196078431" d="M 498.5 777 L 504 784 L 506 784 Q 504.9 786.7 507.5 786 L 515.5 793 L 538.5 803 L 549.5 805 L 577.5 805 L 593.5 801 Q 603.5 797 610.5 790 L 608 793.5 L 609 796.5 L 600.5 802 L 596.5 802 L 591.5 805 L 587.5 805 L 585.5 807 L 580.5 808 L 578.5 808 L 553.5 808 L 551.5 807 L 548.5 808 L 547.5 807 L 538.5 807 L 536.5 805 L 533.5 805 L 527.5 802 L 524.5 799 L 520.5 799 L 503 785.5 L 501 782.5 Q 496.7 781.3 498.5 777 Z " /><path fill="rgb(146,33,41)" stroke="rgb(146,33,41)" stroke-width="1" opacity="0.9725490196078431" d="M 1055.5 785 L 1059 787.5 L 1057.5 788 L 1055.5 785 Z " /><path fill="rgb(146,33,41)" stroke="rgb(146,33,41)" stroke-width="1" opacity="0.9725490196078431" d="M 613.5 788 Q 616.3 787.4 615 793.5 L 615.5 795 Q 612.9 793.6 613.5 789 L 612 789.5 L 613.5 788 Z " /><path fill="rgb(146,33,41)" stroke="rgb(146,33,41)" stroke-width="1" opacity="0.9725490196078431" d="M 785 792 Q 787.7 790.9 787 793.5 L 788 797.5 L 782.5 804 L 780.5 805 L 768.5 805 L 766.5 807 L 753.5 807 L 752.5 808 L 751.5 807 L 734.5 807 L 732.5 807 L 722 802.5 L 721 800.5 L 722.5 800 L 732.5 804 L 765.5 804 L 779.5 800 L 785 800 L 785 792 Z " /><path fill="rgb(0,0,0)" stroke="rgb(0,0,0)" stroke-width="1" opacity="0" d="M 0 0 L 1440 0 L 1440 1440 L 0 1440 L 0 0 Z M 816 545 L 815 546 Q 804 545 798 547 L 785 553 L 780 558 L 775 571 L 775 586 L 776 587 L 777 599 L 783 611 L 799 623 L 798 625 Q 794 624 795 627 L 793 629 L 781 629 L 780 630 L 764 630 L 751 627 L 751 629 L 748 628 L 748 630 L 747 583 L 746 581 L 742 577 L 733 577 L 732 576 L 696 577 L 683 582 L 682 586 Q 680 593 684 595 L 684 638 L 672 642 L 609 642 L 608 641 L 590 640 L 589 639 L 547 639 Q 545 641 541 640 L 526 644 L 511 652 L 509 655 L 500 661 L 495 666 L 487 681 Q 488 684 485 683 L 483 695 L 475 700 L 473 699 L 473 698 L 471 695 L 472 692 L 472 690 L 472 661 L 471 660 L 471 639 L 472 638 L 472 581 L 473 580 L 472 569 L 468 565 L 450 564 L 449 563 L 413 563 L 402 566 L 401 569 L 402 583 L 403 584 L 403 631 L 404 632 L 404 660 L 403 661 L 404 689 L 405 690 L 405 696 L 403 696 L 398 690 Q 394 688 397 687 L 396 685 L 392 682 L 394 682 L 392 678 Q 393 675 390 676 L 384 668 Q 385 665 383 666 L 369 648 Q 370 645 367 646 L 362 639 Q 363 635 360 636 L 359 633 L 346 616 Q 347 613 344 614 L 338 605 Q 339 602 336 603 L 336 601 L 331 596 Q 332 593 329 594 L 327 589 Q 328 585 326 586 L 323 583 Q 324 580 321 581 L 317 576 L 316 571 L 308 566 L 297 566 L 296 565 L 245 565 L 233 568 L 229 573 Q 232 581 230 594 L 231 595 L 231 671 L 231 673 L 231 686 L 230 687 L 230 794 Q 232 795 231 800 L 233 803 L 238 806 L 258 806 L 259 805 L 279 805 L 280 806 L 299 806 L 303 804 L 305 799 L 305 750 L 304 749 L 304 728 L 303 727 L 303 708 L 304 707 L 304 686 L 302 677 L 301 674 L 301 664 L 303 662 L 307 668 L 310 669 L 311 675 L 319 686 L 323 689 Q 322 691 325 690 L 327 696 L 337 710 L 340 711 L 350 725 Q 349 727 352 726 Q 351 729 354 731 Q 353 733 356 732 L 357 736 L 365 746 Q 364 748 367 747 Q 368 753 373 757 Q 372 759 375 758 L 377 762 Q 376 764 379 763 L 381 768 Q 380 770 383 769 L 384 772 L 387 773 L 389 778 Q 388 780 391 779 L 392 782 Q 391 784 394 783 L 395 787 L 398 788 L 398 791 L 403 799 Q 406 804 414 805 L 455 805 L 456 806 L 470 805 L 473 799 L 472 784 L 471 783 L 471 768 L 471 766 L 472 760 L 472 758 Q 474 752 471 751 L 472 747 L 475 744 L 477 744 Q 480 743 481 747 Q 480 750 483 749 Q 482 757 485 762 L 492 774 Q 491 776 494 775 L 499 784 L 515 797 L 533 806 Q 537 805 538 808 L 550 808 L 560 810 L 565 809 L 567 809 L 587 808 L 597 805 L 606 800 Q 608 801 607 798 L 609 798 L 608 794 L 614 789 L 615 796 Q 613 797 616 799 L 618 802 L 624 805 L 632 805 L 633 806 L 667 805 L 672 799 L 672 797 Q 670 795 673 794 L 670 784 L 671 776 L 673 772 L 673 758 L 674 757 Q 672 751 676 752 L 677 750 L 675 751 L 674 749 Q 679 748 680 751 Q 679 753 682 752 L 685 758 L 685 769 L 687 769 L 687 771 L 687 773 L 688 774 L 688 790 L 691 795 L 691 813 Q 695 819 693 832 L 693 834 Q 691 840 695 839 Q 697 844 696 855 Q 700 856 699 861 L 702 862 L 707 860 L 708 859 Q 707 847 711 842 L 710 839 Q 714 832 712 821 L 716 808 L 715 800 L 715 798 Q 719 797 721 800 L 724 804 Q 727 803 726 806 L 729 806 L 729 808 L 767 808 L 785 805 L 789 800 L 789 796 L 793 794 L 799 805 L 806 806 L 818 806 L 819 805 L 836 805 L 837 806 L 853 805 L 855 802 Q 854 799 857 800 L 857 735 L 855 732 L 855 717 L 857 712 L 857 666 L 858 665 L 857 662 L 860 660 L 865 675 Q 864 678 867 677 L 870 683 L 876 703 L 881 712 Q 880 714 883 713 L 884 719 L 891 732 L 896 747 L 902 756 Q 901 760 904 762 Q 903 766 906 765 L 919 800 Q 922 804 929 805 L 932 804 L 934 805 L 937 804 L 940 805 L 942 805 L 945 804 L 949 805 L 978 805 L 983 802 L 987 796 L 989 790 L 989 784 L 992 780 L 992 776 L 996 769 L 998 761 Q 997 758 1000 759 L 1001 755 Q 1000 751 1003 752 L 1005 745 Q 1004 741 1007 742 L 1008 736 L 1011 733 L 1011 730 L 1015 723 L 1015 720 L 1020 707 L 1020 704 L 1025 704 L 1027 710 L 1027 734 L 1026 735 L 1027 743 L 1030 749 L 1030 753 L 1039 770 L 1046 779 Q 1045 781 1048 780 L 1050 784 L 1052 787 L 1072 800 L 1094 808 L 1109 809 L 1113 811 L 1141 811 L 1147 809 L 1155 809 L 1163 807 L 1177 801 L 1192 790 Q 1194 791 1193 788 L 1201 782 Q 1200 779 1203 780 L 1211 770 L 1218 756 Q 1217 749 1220 746 L 1220 732 L 1222 729 Q 1223 723 1220 721 L 1220 706 L 1214 688 L 1207 677 Q 1208 674 1206 675 L 1204 673 L 1184 653 L 1158 642 L 1147 639 L 1103 639 L 1102 640 L 1087 641 L 1074 646 L 1057 659 Q 1054 658 1055 661 L 1050 661 L 1045 664 L 1042 663 Q 1040 665 1039 663 L 1045 652 L 1045 646 L 1042 642 L 1037 641 L 990 641 L 980 643 L 976 647 L 974 661 L 972 663 L 971 673 L 960 702 Q 961 706 958 705 L 958 713 L 952 725 L 946 718 Q 947 712 943 711 L 943 706 L 932 685 L 932 682 L 927 673 L 926 668 Q 927 664 924 665 L 922 652 L 918 645 L 915 642 Q 908 644 907 641 L 845 641 L 844 640 L 832 640 L 818 635 L 817 633 L 818 629 L 827 626 L 833 621 L 846 614 Q 848 615 847 612 L 849 612 L 854 603 L 855 595 L 857 593 L 857 577 L 855 576 L 853 568 Q 854 564 851 565 L 849 559 Q 846 560 847 558 L 832 548 L 816 545 Z " /><path fill="rgb(0,0,0)" stroke="rgb(0,0,0)" stroke-width="1" opacity="0" d="M 853.5 650 L 858 658.5 L 855.5 659 Q 853.3 658.3 854 660.5 L 853 660.5 L 853.5 650 Z " /><path fill="rgb(0,0,0)" stroke="rgb(0,0,0)" stroke-width="1" opacity="0" d="M 1119.5 687 Q 1127.5 686.3 1132 688 Q 1130.7 691.3 1135.5 690 Q 1137 693.5 1138.5 691 L 1141 691.5 L 1140.5 693 L 1148 697 L 1156 710.5 L 1157 729.5 Q 1154.5 731 1156 736.5 L 1148 751 Q 1138.4 757.7 1124.5 761 L 1113.5 759 Q 1104.8 755.8 1099 749.5 Q 1099.8 747.3 1097.5 748 Q 1091.6 743 1090 733.5 L 1091 731.5 L 1090 729.5 L 1090 727.5 L 1091 711.5 Q 1093.6 710.1 1093 705.5 L 1097.5 700 L 1110 693 Q 1108.8 690 1112.5 691 L 1119.5 687 Z " /><path fill="rgb(0,0,0)" stroke="rgb(0,0,0)" stroke-width="1" opacity="0" d="M 1019 699 Q 1022 697.8 1021 701.5 L 1019 702.5 L 1019 699 Z " /><path fill="rgb(0,0,0)" stroke="rgb(0,0,0)" stroke-width="1" opacity="0" d="M 943.5 714 Q 946.1 713.2 945 716.5 L 944 716.5 L 943.5 714 Z " /><path fill="rgb(0,0,0)" stroke="rgb(0,0,0)" stroke-width="1" opacity="0" d="M 562.5 720 L 577.5 721 Q 579 718.5 584.5 720 L 594 724 Q 595.6 726.1 595 731.5 L 594 734 Q 591.3 732.9 592 735.5 L 596 742.5 L 594 743 L 592 749 Q 589.3 747.9 590 750.5 L 588 754 L 580.5 757 L 568.5 758 Q 557.3 756.3 551 749.5 L 550 746 Q 546.7 747.3 548 742.5 L 547 738 L 550 736.5 L 548 735.5 L 551 734 L 551 730 L 552.5 730 Q 555.3 728.8 553 727.5 L 554.5 725 L 557.5 723 L 562.5 720 Z " /><path fill="rgb(246,244,244)" stroke="rgb(246,244,244)" stroke-width="1" opacity="0.9215686274509803" d="M 815.5 545 L 831.5 548 L 847 557.5 Q 846.3 559.8 848.5 559 L 851 565 Q 854 563.8 853 567.5 L 855 576 L 857 576.5 L 857 592.5 L 855 594.5 L 854 602.5 L 849 612 L 847 612 Q 848.1 614.7 845.5 614 L 832.5 621 L 826.5 626 L 818 629 L 817 632.5 L 818 635 L 831.5 640 L 843.5 640 L 844.5 641 L 906.5 641 Q 908.3 643.7 914.5 642 L 918 644.5 L 922 651.5 L 924 665 Q 927 663.8 926 667.5 L 927 672.5 L 932 681.5 L 932 684.5 L 943 705.5 L 943 709.5 L 942 709.5 L 942 706.5 L 939 700 Q 935.3 701.4 937 695.5 L 934 694 L 944.5 720 L 945 714.5 L 943 711.5 L 946 713.5 L 946 717.5 L 951.5 725 L 958 712.5 L 958 705 Q 961.3 706.3 960 701.5 L 971 672.5 L 972 662.5 L 974 660.5 L 976 646.5 L 979.5 643 L 989.5 641 L 1036.5 641 L 1041.5 642 L 1045 645.5 L 1045 651.5 L 1039 662.5 Q 1040.3 665.3 1041.5 663 L 1044.5 664 L 1049.5 661 L 1055 661 Q 1053.9 658.3 1056.5 659 L 1073.5 646 L 1086.5 641 L 1101.5 640 L 1102.5 639 L 1146.5 639 L 1157.5 642 L 1183.5 653 L 1204 672.5 L 1205.5 675 Q 1207.8 674.3 1207 676.5 L 1214 687.5 L 1220 705.5 L 1220 720.5 Q 1223 722.5 1222 728.5 L 1220 731.5 L 1220 745.5 Q 1217 748.5 1218 755.5 L 1211 769.5 L 1203 780 Q 1200.3 778.9 1201 781.5 L 1193 788 Q 1194.1 790.7 1191.5 790 L 1176.5 801 L 1162.5 807 L 1154.5 809 L 1146.5 809 L 1140.5 811 L 1112.5 811 L 1108.5 809 L 1093.5 808 L 1071.5 800 L 1052 786.5 L 1050 783.5 L 1048 780 Q 1045.3 781.1 1046 778.5 L 1039 769.5 L 1030 752.5 L 1030 748.5 L 1027 742.5 L 1026 734.5 L 1027 733.5 L 1027 709.5 L 1025 704 L 1020 704 L 1020 706.5 L 1015 719.5 L 1015 722.5 L 1011 729.5 L 1011 732.5 L 1008 735.5 L 1007 742 Q 1004 740.8 1005 744.5 L 1003 752 Q 1000 750.8 1001 754.5 L 999.5 759 L 999 753.5 L 1010 731.5 Q 1008.8 724.8 1013 723.5 L 1013 717.5 L 1021 702.5 L 1021 698.5 Q 1025.1 696.2 1024 690 Q 1026.7 691.1 1026 688.5 L 1030 681.5 L 1030 677.5 L 1035 668.5 L 1035 665.5 L 1041 656.5 L 1041 653 Q 1044.3 654.3 1043 649.5 Q 1045.8 647.7 1041.5 646 Q 1039.3 645.3 1040 647.5 L 1037 652.5 L 1024 687.5 L 1016 703.5 L 1013 713.5 L 1009 720.5 L 1008 725.5 L 1003 734.5 L 1003 737.5 L 985 779.5 L 978 800 L 924 800.5 L 931 804.5 L 928.5 805 Q 921.9 804.1 919 799.5 L 906 765 Q 902.7 766.3 904 761.5 Q 901.4 760.1 902 755.5 L 896 746.5 L 891 731.5 L 884 718.5 L 883 713 Q 880.3 714.1 881 711.5 L 876 702.5 L 870 682.5 L 867 677 Q 864 678.3 865 674.5 L 860 660 L 857 661.5 L 858 664.5 L 857 665.5 L 857 711.5 L 855.5 716 L 855 661.5 L 856 659 L 859 657.5 Q 857.8 649.7 852.5 646 L 851 647.5 L 851 663.5 L 852 664.5 L 852 800 L 799.5 800 L 799 801.5 L 803 804.5 L 799 805 L 792.5 794 L 789 795.5 L 789 799.5 L 785 805 L 766.5 808 L 753.5 808 L 753.5 807 L 766.5 807 L 768.5 805 L 780.5 805 L 787 799.5 L 788 794.5 L 787 792 L 785 792.5 L 785 800 L 779.5 800 L 765.5 804 L 732.5 804 Q 722 802 716 797 L 715 794.5 L 725 754.5 L 734.5 744 L 749.5 739 L 751.5 741 L 755.5 737 L 758.5 737 L 762.5 734 L 769.5 734 Q 770.3 731.3 774.5 732 L 780.5 729 L 785 724.5 Q 784.3 721.9 787 723 L 787 718.5 Q 783.4 709.8 771 711 L 770.5 709 L 762.5 709 L 758.5 706 L 753.5 706 L 751 703.5 L 748 698.5 L 748 657.5 L 746 653.5 L 746 583.5 L 744.5 582 Q 742.2 578.8 735.5 580 L 733.5 582 L 725.5 582 L 721.5 585 L 713.5 585 L 707.5 588 L 696.5 588 L 689.5 591 L 686 594.5 L 686 666.5 Q 682.1 674.1 684 687.5 L 683 692.5 L 680.5 695 Q 678.6 698.6 672.5 698 L 670 697 L 670 649.5 L 667.5 646 L 666 646.5 L 666 697.5 L 646.5 705 L 613.5 714 L 604.5 702 L 604 703.5 L 610 714.5 L 611 722.5 L 613.5 726 L 614 723 L 651.5 736 L 667 743.5 L 667 800 L 620.5 800 L 620 802 L 626 804.5 L 623.5 805 L 618 801.5 L 616 798.5 L 614 796.5 Q 617.5 795 615 793.5 Q 616.3 787.4 613.5 788 Q 601.9 799.4 583.5 804 Q 578.7 802.7 577.5 805 L 549.5 805 Q 522.6 800.2 506 786 L 506 784 Q 503.3 785.1 504 782.5 L 498 777.5 L 501 784 Q 503.7 782.9 503 785.5 L 520.5 799 L 524.5 799 L 527.5 802 L 533.5 805 L 536.5 805 L 538.5 807 L 548 807.5 L 537.5 808 L 514.5 797 L 499 783.5 L 494 775 Q 491.3 776.1 492 773.5 L 485 761.5 Q 482.1 756.6 483 749 Q 480 750.3 481 746.5 Q 480.5 743.5 476.5 744 L 474.5 744 L 472 746.5 L 471 750.5 Q 473.5 752 472 757.5 L 472 759.5 L 471 765.5 L 471 767.5 L 471 782.5 L 472 783.5 L 473 798.5 L 470 805 L 467 804.5 L 470 802.5 L 471 793.5 L 470 792.5 L 470 576.5 L 470 574.5 Q 471 570 468.5 569 L 467 576.5 L 468 578.5 L 467 583.5 Q 469.8 585.3 468 591.5 Q 465.2 593.2 467 599.5 Q 469.8 601.3 468 607.5 L 467 608.5 L 467 631.5 Q 469.8 633.3 468 639.5 L 467 640.5 L 467 663.5 L 468 664.5 L 468 800 L 409 800.5 L 416 804.5 L 413.5 805 Q 406.1 803.9 403 798.5 L 398 790.5 L 398 788 L 395 786.5 L 393.5 783 Q 391.3 783.8 392 781.5 L 391 779 Q 388.3 780.1 389 777.5 L 387 773 L 384 771.5 L 382.5 769 Q 380.3 769.8 381 767.5 L 379 763 Q 376.3 764.1 377 761.5 L 374.5 758 Q 372.3 758.8 373 756.5 Q 368 753.3 367 747 Q 364.3 748.1 365 745.5 L 357 735.5 L 356 732 Q 353.3 733.1 354 730.5 Q 351.3 729.4 352 726 Q 349.3 727.1 350 724.5 L 339.5 711 L 337 709.5 L 327 695.5 L 325 690 Q 322.3 691.1 323 688.5 L 319 686 L 311 674.5 L 310 669 L 307 667.5 L 303 660 L 300 660.5 L 300 800 L 237.5 800 L 237 801.5 Q 239.1 805.4 245.5 805 L 254.5 802 L 261.5 802 L 267.5 804 L 297.5 805 L 301 802.5 Q 300.5 798 304 797.5 L 304 791.5 Q 300.8 788.2 302 780.5 L 303 779.5 L 303 746.5 L 302 745.5 L 302 717.5 Q 299.7 716.3 301 711.5 L 303 701.5 L 303 691.5 L 301 683.5 L 301 676.5 L 302 676.5 L 304 685.5 L 304 706.5 L 303 707.5 L 303 726.5 L 304 727.5 L 304 748.5 L 305 749.5 L 305 798.5 L 303 804 L 298.5 806 L 279.5 806 L 278.5 805 L 258.5 805 L 257.5 806 L 237.5 806 L 233 802.5 L 231 799.5 Q 232.2 794.7 230 793.5 L 230 686.5 L 231 685.5 L 231 672.5 L 231 670.5 L 231 594.5 L 230 593.5 Q 231.7 580.8 229 572.5 L 232.5 568 L 244.5 565 L 295.5 565 L 296.5 566 L 307.5 566 L 316 571 L 317 575.5 L 321 581 Q 323.7 579.9 323 582.5 L 325.5 586 Q 328.1 585.2 327 588.5 L 329 594 Q 331.7 592.9 331 595.5 L 336 600.5 L 336 603 Q 338.7 601.9 338 604.5 L 344 614 Q 346.7 612.9 346 615.5 L 359 632.5 L 360 636 Q 363 634.8 362 638.5 L 367 646 Q 369.7 644.9 369 647.5 L 382.5 666 Q 384.8 665.3 384 667.5 L 390 676 Q 392.7 674.9 392 677.5 L 394 680.5 L 392.5 681 L 391 680.5 L 392 684 L 394.5 683 L 397 686.5 L 397 688.5 L 403 698 L 406 696.5 L 404 688.5 L 403 660.5 L 404 659.5 L 404 631.5 L 403 630.5 L 403 583.5 L 402 582.5 L 401 568.5 L 402 566 L 412.5 563 L 448.5 563 L 449.5 564 L 467.5 565 L 472 568.5 L 473 579.5 L 472 580.5 L 472 637.5 L 471 638.5 L 471 659.5 L 472 660.5 L 472 689.5 L 472 691.5 L 471 694.5 L 473 697.5 L 472.5 699 L 474.5 700 L 483 694.5 L 485 683 Q 488 684.3 487 680.5 L 495 665.5 L 499.5 661 L 509 655 L 510.5 652 L 525.5 644 L 540.5 640 Q 545.3 641.3 546.5 639 L 588.5 639 L 589.5 640 L 607.5 641 L 608.5 642 L 671.5 642 L 684 638 L 684 594.5 Q 680.2 592.8 682 585.5 L 683 582 L 695.5 577 L 731.5 576 L 732.5 577 L 741.5 577 L 746 580.5 L 747 582.5 L 747.5 630 L 748 628 L 750.5 629 L 751 627 L 763.5 630 L 779.5 630 L 780.5 629 L 792.5 629 L 795 626.5 Q 794.2 623.9 797.5 625 L 799 622.5 L 783 610.5 L 777 598.5 L 776 586.5 L 775 585.5 L 775 570.5 L 780 557.5 L 784.5 553 L 797.5 547 Q 804.2 544.7 814.5 546 L 815.5 545 Z M 844 560 L 849 569 L 852 580 L 851 594 L 845 608 Q 837 617 824 620 L 806 620 L 802 618 L 801 620 L 804 622 Q 810 621 812 624 L 821 624 Q 823 621 829 622 L 832 619 Q 836 620 835 617 L 838 616 Q 842 617 841 614 L 845 613 L 847 610 Q 846 607 849 608 Q 849 603 853 600 Q 852 593 855 591 L 855 579 L 853 577 L 852 570 L 847 562 L 844 560 Z M 311 571 L 310 573 L 312 574 L 311 571 Z M 314 576 L 315 578 Q 316 575 314 576 Z M 316 579 L 318 582 L 318 581 L 316 579 Z M 319 582 L 318 584 L 321 586 L 319 582 Z M 323 588 Q 321 591 324 590 L 323 588 Z M 325 591 L 326 593 Q 327 590 325 591 Z M 334 602 Q 332 605 335 604 L 334 602 Z M 786 608 L 787 610 Q 788 607 786 608 Z M 340 610 L 339 613 L 341 613 L 340 610 Z M 789 611 Q 787 614 790 613 L 789 611 Z M 797 617 L 798 619 L 800 619 L 797 617 Z M 350 624 L 349 626 L 352 627 L 350 624 Z M 915 647 L 919 658 L 920 658 Q 922 651 919 649 Q 916 650 917 647 L 915 647 Z M 607 649 L 607 651 L 612 653 L 613 651 Q 612 648 607 649 Z M 921 658 L 921 663 Q 920 665 923 664 L 921 658 Z M 924 666 L 924 671 Q 923 673 926 672 L 924 666 Z M 926 675 L 927 679 L 928 679 Q 929 674 926 675 Z M 1203 675 L 1202 677 L 1206 681 L 1207 681 L 1203 675 Z M 390 677 L 389 679 L 391 680 L 390 677 Z M 929 680 Q 927 683 931 685 L 931 681 L 929 680 Z M 1207 683 L 1208 687 L 1210 688 L 1209 685 Q 1210 682 1207 683 Z M 568 686 L 559 688 L 551 692 Q 540 700 537 715 L 537 732 L 540 738 L 540 714 L 543 710 L 543 706 L 553 695 Q 555 696 554 694 Q 555 691 561 692 L 565 689 L 584 689 L 589 692 L 592 692 L 599 698 Q 601 699 600 697 Q 590 685 568 686 Z M 1121 686 L 1107 689 L 1098 694 L 1090 703 L 1085 717 L 1085 731 L 1087 735 Q 1086 739 1089 738 L 1089 710 L 1092 705 L 1094 702 L 1099 698 L 1100 695 Q 1105 696 1107 692 L 1110 693 L 1098 700 L 1093 706 Q 1094 710 1091 712 L 1090 728 L 1090 730 L 1091 732 L 1090 734 Q 1092 743 1098 748 Q 1100 747 1099 750 Q 1105 756 1114 759 L 1125 761 Q 1138 758 1148 751 L 1156 737 Q 1155 731 1157 730 L 1156 711 L 1148 697 L 1140 693 L 1142 692 L 1138 690 L 1138 692 Q 1136 689 1132 690 L 1134 689 L 1132 687 L 1121 686 Z M 932 687 L 933 693 L 934 693 L 933 689 Q 934 686 932 687 Z M 767 688 L 770 692 L 796 692 L 796 690 L 795 688 L 767 688 Z M 1211 688 L 1211 693 L 1213 692 L 1211 688 Z M 1212 694 L 1215 702 L 1215 696 L 1212 694 Z M 602 698 L 601 700 L 604 701 L 602 698 Z M 1216 703 Q 1213 708 1216 710 L 1216 740 L 1212 756 Q 1206 773 1193 784 Q 1181 794 1166 800 L 1157 803 L 1147 805 L 1140 805 L 1139 806 L 1111 806 L 1110 805 L 1097 804 L 1083 800 L 1062 789 L 1060 789 L 1062 791 Q 1064 790 1063 793 L 1068 794 L 1073 798 Q 1079 798 1082 802 L 1085 802 L 1089 805 Q 1094 804 1096 807 L 1102 807 L 1104 807 L 1112 808 L 1116 810 L 1137 810 L 1140 808 L 1156 807 L 1158 805 L 1163 805 L 1167 802 L 1172 801 Q 1174 802 1173 799 L 1178 798 L 1189 790 L 1192 788 L 1201 778 L 1204 776 L 1212 765 Q 1212 759 1215 758 Q 1213 748 1218 746 L 1218 732 L 1219 731 L 1218 706 L 1216 703 Z M 799 716 L 798 717 Q 795 716 796 720 Q 803 721 806 718 L 799 716 Z M 563 720 L 558 723 L 555 725 L 553 728 Q 555 729 553 730 L 551 730 L 551 734 L 548 736 L 550 737 L 547 738 L 548 743 Q 547 747 550 746 L 551 750 Q 557 756 569 758 L 581 757 L 588 754 L 590 751 Q 589 748 592 749 L 594 743 L 596 743 L 592 736 Q 591 733 594 734 L 595 732 Q 596 726 594 724 L 585 720 Q 579 719 578 721 L 563 720 Z M 946 720 L 949 731 Q 948 733 951 732 L 951 727 L 950 726 L 946 720 Z M 540 739 L 541 743 L 544 745 L 543 741 L 540 739 Z M 1089 740 L 1090 744 L 1091 744 Q 1092 739 1089 740 Z M 545 745 Q 543 748 546 747 L 545 745 Z M 547 748 L 548 750 L 549 750 L 547 748 Z M 492 771 Q 491 774 494 773 Q 495 770 492 771 Z M 1057 786 L 1058 788 L 1059 788 L 1057 786 Z " /><path fill="rgb(246,244,244)" stroke="rgb(246,244,244)" stroke-width="1" opacity="0.9215686274509803" d="M 399.5 689 L 400.5 691 L 399.5 689 Z " /><path fill="rgb(246,244,244)" stroke="rgb(246,244,244)" stroke-width="1" opacity="0.9215686274509803" d="M 855.5 732 L 857 734.5 L 857 800 Q 854.3 798.9 855 801.5 L 852.5 805 L 850 804.5 L 852 804 L 855 799.5 L 855.5 732 Z " /><path fill="rgb(246,244,244)" stroke="rgb(246,244,244)" stroke-width="1" opacity="0.9215686274509803" d="M 673.5 748 Q 678.9 747.4 681 749 L 681 751 Q 683.7 749.9 683 752.5 L 686 756.5 L 686 768.5 L 685 768.5 L 685 757.5 L 681.5 752 Q 679.3 752.8 680 750.5 Q 678.6 747.8 674 749 L 674.5 751 L 676.5 750 L 675.5 752 Q 672.1 751.1 674 756.5 L 673 757.5 L 673 771.5 Q 670.3 774.8 670.5 781 L 670 759.5 Q 672.5 758 671 752.5 L 673.5 748 Z " /><path fill="rgb(246,244,244)" stroke="rgb(246,244,244)" stroke-width="1" opacity="0.9215686274509803" d="M 997.5 760 L 997 761.5 L 996 768.5 L 992 775.5 L 992 779.5 L 989 783.5 L 989 789.5 L 987 795.5 L 982.5 802 L 975.5 805 L 975.5 804 L 982 800.5 L 987 790.5 L 987 785.5 L 990 780.5 Q 989.4 775.1 991 773 Q 994.7 774.4 993 768.5 L 997.5 760 Z " /><path fill="rgb(246,244,244)" stroke="rgb(246,244,244)" stroke-width="1" opacity="0.9215686274509803" d="M 687.5 772 L 689 773.5 L 689 789.5 L 692 793.5 L 692 811.5 Q 697.2 816.2 695 828.5 L 694 831.5 Q 696.3 832.8 695 837.5 L 697 839.5 L 697 850.5 Q 700.7 853.6 701 859 L 706 858 Q 704.3 850 708.5 847 L 709 848.5 L 708 849.5 L 708 858.5 L 706.5 860 L 701.5 862 L 699 861 Q 699.6 856.4 696 854.5 Q 697.2 844.2 695 839 Q 691 840.4 693 833.5 L 693 831.5 Q 695 819 691 812.5 L 691 794.5 L 688 789.5 L 688 773.5 L 687.5 772 Z " /><path fill="rgb(246,244,244)" stroke="rgb(246,244,244)" stroke-width="1" opacity="0.9215686274509803" d="M 670.5 784 L 673 793.5 L 671 794.5 L 670.5 784 Z " /><path fill="rgb(246,244,244)" stroke="rgb(246,244,244)" stroke-width="1" opacity="0.9215686274509803" d="M 670 796 Q 673 794.8 672 798.5 L 666.5 805 L 662 804.5 L 669 802 L 670 796 Z " /><path fill="rgb(246,244,244)" stroke="rgb(246,244,244)" stroke-width="1" opacity="0.9215686274509803" d="M 604.5 799 L 607 799.5 L 601.5 802 L 601.5 801 L 604.5 799 Z " /><path fill="rgb(246,244,244)" stroke="rgb(246,244,244)" stroke-width="1" opacity="0.9215686274509803" d="M 596.5 802 L 600 802.5 L 593.5 806 L 586.5 808 L 581.5 808 L 581.5 807 L 585.5 807 L 587.5 805 Q 594.2 805.7 596.5 802 Z " /><path fill="rgb(246,244,244)" stroke="rgb(246,244,244)" stroke-width="1" opacity="0.9215686274509803" d="M 427.5 804 L 440 804.5 L 427.5 805 L 427.5 804 Z " /><path fill="rgb(246,244,244)" stroke="rgb(246,244,244)" stroke-width="1" opacity="0.9215686274509803" d="M 635.5 804 Q 648.1 802.4 656 805.5 L 632.5 806 L 632.5 805 L 635.5 804 Z " /><path fill="rgb(246,244,244)" stroke="rgb(246,244,244)" stroke-width="1" opacity="0.9215686274509803" d="M 715.5 804 L 716 807.5 L 715 807.5 L 715.5 804 Z " /><path fill="rgb(246,244,244)" stroke="rgb(246,244,244)" stroke-width="1" opacity="0.9215686274509803" d="M 811.5 804 L 831 804.5 L 805.5 806 L 805.5 805 Q 810.3 806.2 811.5 804 Z " /><path fill="rgb(246,244,244)" stroke="rgb(246,244,244)" stroke-width="1" opacity="0.9215686274509803" d="M 455.5 805 L 459 805.5 L 455.5 806 L 455.5 805 Z " /><path fill="rgb(246,244,244)" stroke="rgb(246,244,244)" stroke-width="1" opacity="0.9215686274509803" d="M 726.5 805 L 733 807.5 L 729 808 Q 730.3 805 726.5 806 L 726.5 805 Z " /><path fill="rgb(246,244,244)" stroke="rgb(246,244,244)" stroke-width="1" opacity="0.9215686274509803" d="M 836.5 805 L 844 805.5 L 836.5 806 L 836.5 805 Z " /><path fill="rgb(246,244,244)" stroke="rgb(246,244,244)" stroke-width="1" opacity="0.9215686274509803" d="M 551.5 807 L 565 808.5 L 559.5 810 L 558.5 809 L 550 808.5 L 551.5 807 Z " /><path fill="rgb(246,244,244)" stroke="rgb(246,244,244)" stroke-width="1" opacity="0.9215686274509803" d="M 579.5 807 L 578.5 809 L 566 808.5 L 578.5 808 L 579.5 807 Z " /><path fill="rgb(246,244,244)" stroke="rgb(246,244,244)" stroke-width="1" opacity="0.9215686274509803" d="M 734.5 807 L 752 807.5 L 734.5 808 L 734.5 807 Z " /><path fill="rgb(246,244,244)" stroke="rgb(246,244,244)" stroke-width="1" opacity="0.9215686274509803" d="M 714.5 811 L 715 813.5 L 714 813.5 L 714.5 811 Z " /><path fill="rgb(246,244,244)" stroke="rgb(246,244,244)" stroke-width="1" opacity="0.9215686274509803" d="M 711.5 831 L 712 832.5 L 710 838.5 L 711 841.5 L 709.5 845 L 709 834.5 L 711.5 831 Z " /></svg>