<svg width="1280" height="1280" version="1.1" xmlns="http://www.w3.org/2000/svg" desc="Created with imagetracer.js version 1.2.6" ><path fill="rgb(0,0,0)" stroke="rgb(0,0,0)" stroke-width="1" opacity="0" d="M 0 0 L 1280 0 L 1280 1280 L 0 1280 L 0 0 Z M 738 472 L 729 476 L 724 480 L 718 487 L 714 498 Q 713 515 722 523 Q 721 525 724 524 L 724 526 L 726 526 L 726 528 L 740 533 L 755 532 L 762 528 Q 770 521 774 511 L 774 496 L 769 485 L 757 474 Q 750 470 738 472 Z M 248 474 L 246 476 L 246 707 L 248 708 L 300 708 L 300 567 L 302 565 L 392 707 L 393 708 L 446 708 L 447 636 L 447 648 L 452 666 L 458 678 L 466 689 L 485 704 L 500 710 L 511 711 L 512 712 L 532 712 L 546 708 L 559 700 L 565 694 L 567 695 L 567 707 L 569 708 L 617 708 L 618 707 L 618 671 L 619 671 L 619 674 Q 622 673 621 678 L 623 678 L 623 684 L 625 684 L 625 690 L 627 690 L 627 696 L 629 696 L 629 704 L 631 706 L 631 741 L 632 742 L 632 743 L 636 743 L 637 741 L 637 713 L 639 711 L 639 704 L 641 702 L 641 696 Q 644 694 644 688 L 648 695 L 650 698 Q 655 704 664 708 L 680 712 L 699 712 Q 701 709 708 710 L 711 708 L 715 708 Q 717 704 719 708 L 769 708 L 769 586 L 771 585 L 820 677 L 822 683 L 836 707 L 837 708 L 871 708 L 874 704 L 876 698 L 948 564 L 947 562 L 890 562 L 883 574 L 855 637 Q 856 640 852 638 L 852 636 L 819 564 L 819 562 L 688 562 L 688 510 L 687 508 L 639 508 L 637 510 L 637 522 L 631 521 L 631 558 L 629 560 L 629 562 L 568 562 L 566 564 L 566 574 L 551 564 L 531 558 L 512 558 L 501 560 L 498 562 L 494 562 L 482 568 L 468 579 L 458 593 L 452 606 L 447 624 L 447 634 L 446 634 L 446 475 L 446 474 L 394 474 L 392 476 L 392 617 L 302 477 L 300 474 L 248 474 Z M 1005 558 L 1004 559 L 992 560 L 989 562 L 984 562 L 965 570 L 954 578 L 945 587 Q 946 589 943 588 L 933 604 L 928 619 Q 930 625 927 627 L 927 643 L 931 662 L 940 679 L 943 682 L 945 685 L 961 698 L 972 704 L 983 708 L 988 708 L 991 710 L 1003 711 L 1004 712 L 1031 712 L 1053 706 L 1068 698 L 1083 685 Q 1082 682 1085 683 L 1095 667 L 1101 646 L 1101 625 L 1097 609 L 1087 592 L 1083 588 L 1079 583 L 1064 570 L 1045 562 L 1025 558 L 1005 558 Z " /><path fill="rgb(0,0,0)" stroke="rgb(0,0,0)" stroke-width="1" opacity="0" d="M 689.5 601 L 716.5 601 L 718 602.5 L 718 628.5 Q 717.9 629.6 712.5 629 L 710.5 627 L 703.5 627 L 701.5 625 Q 695.8 626.3 694.5 623 L 688 623 L 688 602.5 L 689.5 601 Z " /><path fill="rgb(0,0,0)" stroke="rgb(0,0,0)" stroke-width="1" opacity="0" d="M 527.5 602 L 541.5 602 L 558 610 L 558 612 Q 560.7 610.9 560 613.5 L 566 622.5 L 566 627 L 558.5 627 L 557.5 629 L 531.5 629 L 531 629.5 L 531 635 L 558.5 635 L 560.5 637 L 568 637 L 566 647.5 L 562 656 Q 559.3 654.9 560 657.5 Q 552 669 532.5 669 L 522.5 667 L 515.5 664 L 507 655.5 L 503 648.5 L 501 640.5 L 501 629.5 L 503 621.5 L 511.5 610 L 527.5 602 Z " /><path fill="rgb(0,0,0)" stroke="rgb(0,0,0)" stroke-width="1" opacity="0" d="M 1007.5 602 L 1021.5 602 Q 1022.9 604.6 1027.5 604 Q 1036.5 608 1042 615.5 Q 1049.7 624.3 1047 643.5 L 1043 653.5 L 1036.5 661 Q 1028.8 669.3 1012.5 669 L 1001.5 667 L 989 658.5 Q 979.4 649.1 981 628.5 Q 983.4 616.4 991.5 610 L 1007.5 602 Z " /><path fill="rgb(0,0,0)" stroke="rgb(0,0,0)" stroke-width="1" opacity="0" d="M 711.5 635 Q 717.8 634.3 718 635.5 L 718 678.5 L 716 677.5 L 713 665.5 L 710.5 662 L 703.5 666 L 695.5 666 L 691 662.5 Q 686.1 654.7 688 641 Q 693.8 642.5 695.5 639 L 701.5 639 L 703.5 637 L 709.5 637 L 711.5 635 Z " /><path fill="rgb(0,0,0)" stroke="rgb(0,0,0)" stroke-width="1" opacity="0.984313725490196" d="M 737.5 472 Q 749.6 470.4 756.5 474 L 769 484.5 L 774 495.5 L 774 510.5 Q 770 521.5 761.5 528 L 754.5 532 L 739.5 533 L 726 528 L 726 526 L 724 526 L 724 524 Q 721.3 525.1 722 522.5 Q 713.1 514.9 714 497.5 L 718 486.5 L 723.5 480 L 728.5 476 L 737.5 472 Z " /><path fill="rgb(0,0,0)" stroke="rgb(0,0,0)" stroke-width="1" opacity="0.984313725490196" d="M 247.5 474 L 299.5 474 L 302 476.5 L 391.5 617 L 392 475.5 L 393.5 474 L 445.5 474 L 446 474.5 L 446 633.5 L 447 633.5 L 447 623.5 L 452 605.5 L 458 592.5 L 468 579 L 481.5 568 L 493.5 562 L 497.5 562 L 500.5 560 L 511.5 558 L 530.5 558 L 550.5 564 L 566 574 L 566 563.5 L 567.5 562 L 629.5 562 L 630 562.5 L 630 568 L 628 568 L 628 574.5 L 626 575 L 626 581 L 624 581 L 624 587 L 622 587 L 622 591 L 620 591 L 620 595 L 618.5 595 L 610 607 L 603 612.5 Q 603.9 615.5 599.5 614 L 591.5 620 L 587 620 L 587 622 L 582 622 L 582 624 L 575.5 624 L 574.5 626 L 568.5 626 L 566 627 L 566 622.5 L 560 612 L 558 612 Q 559.1 609.3 556.5 610 L 551.5 606 L 541.5 602 L 527.5 602 Q 516.1 605.1 509 612.5 L 503 621.5 L 501 629.5 L 501 640.5 Q 503.9 656.6 515.5 664 Q 524.3 669.2 538.5 669 L 551.5 665 L 560 657.5 L 562 654.5 L 566 647.5 L 567 639.5 L 568.5 638 L 575.5 638 L 576 640 L 582.5 640 Q 581.5 643 586.5 642 Q 588 645.2 593 644 Q 591.8 647 595.5 646 Q 606.3 652.3 614 661.5 L 618 668.5 L 618 706.5 L 616.5 708 L 568.5 708 L 567 706.5 L 567 694 L 564.5 694 L 552.5 704 L 539.5 710 L 531.5 712 L 511.5 712 L 510.5 711 L 499.5 710 L 484.5 704 L 466 688.5 L 458 677.5 L 452 665.5 L 447 647.5 L 446.5 636 L 446 708 L 392.5 708 L 392 706.5 L 301.5 565 L 300 566.5 L 300 708 L 247.5 708 L 246 706.5 L 246 475.5 L 247.5 474 Z " /><path fill="rgb(0,0,0)" stroke="rgb(0,0,0)" stroke-width="1" opacity="0.984313725490196" d="M 638.5 508 L 686.5 508 L 688 509.5 L 688 562 L 818.5 562 L 819 563.5 L 852 635.5 L 852 638 Q 855.7 639.5 855 636.5 L 883 573.5 L 889.5 562 L 946.5 562 L 948 563.5 L 876 697.5 L 874 703.5 L 870.5 708 L 836.5 708 L 836 706.5 L 822 682.5 L 820 676.5 L 771 585 L 769 585.5 L 769 708 L 718.5 708 Q 716.5 704 714.5 708 L 710.5 708 L 707.5 710 Q 701.2 709.2 698.5 712 L 679.5 712 L 663.5 708 Q 655.1 704.4 650 697.5 L 648 694.5 Q 642 691.3 644 681 Q 647.7 682.4 646 676.5 Q 649 675.3 648 671 Q 650.7 672.1 650 669.5 L 652 665 L 655 663.5 L 656 659 L 669 649.5 L 669 648 L 673 648 L 673 646 L 677 646 L 677 644 L 680.5 644 Q 682.2 640.5 688 642 Q 685.8 657.9 693.5 665 Q 696.7 667.3 703.5 666 L 710.5 662 L 713 665.5 Q 713.7 673.8 717.5 679 L 718 634 L 745.5 634 L 746 630 L 718 630 L 718 602.5 L 716.5 601 L 689.5 601 L 688 602.5 L 688 622 L 677 620 L 677 618 L 673 618 L 673 616.5 L 662.5 610 L 657 604.5 L 657 602 Q 654.3 603.1 655 600.5 Q 647.8 593.9 646 583 Q 642 584.4 644 577.5 Q 640.5 575.8 642 570 L 640 570 L 640 562.5 L 638 561.5 L 638 553.5 L 637 552.5 L 637 509.5 L 638.5 508 Z " /><path fill="rgb(0,0,0)" stroke="rgb(0,0,0)" stroke-width="1" opacity="0.984313725490196" d="M 1004.5 558 L 1024.5 558 L 1044.5 562 L 1063.5 570 L 1079 582.5 L 1083 587.5 L 1087 591.5 L 1097 608.5 L 1101 624.5 L 1101 645.5 L 1095 666.5 L 1085 683 Q 1082.3 681.9 1083 684.5 L 1067.5 698 L 1052.5 706 L 1030.5 712 L 1003.5 712 L 1002.5 711 L 990.5 710 L 987.5 708 L 982.5 708 L 971.5 704 L 960.5 698 L 945 684.5 L 943 681.5 L 940 678.5 L 931 661.5 L 927 642.5 L 927 626.5 Q 929.8 624.8 928 618.5 L 933 603.5 L 943 588 Q 945.7 589.1 945 586.5 L 953.5 578 L 964.5 570 L 983.5 562 L 988.5 562 L 991.5 560 L 1003.5 559 L 1004.5 558 Z M 1008 602 L 992 610 Q 983 616 981 629 Q 979 649 989 659 L 1002 667 L 1013 669 Q 1029 669 1037 661 L 1043 654 L 1047 644 Q 1050 624 1042 616 Q 1037 608 1028 604 Q 1023 605 1022 602 L 1008 602 Z " /><path fill="rgb(149,31,10)" stroke="rgb(149,31,10)" stroke-width="1" opacity="0.9725490196078431" d="M 631 521 Q 635.6 519.8 637 522.5 L 637 552.5 L 638 553.5 L 638 562 L 640 562.5 L 640 569.5 Q 643.5 568.5 642 575.5 Q 645.5 577.2 644 583 Q 647.3 581.7 646 586.5 L 655 602 Q 658 600.8 657 604.5 L 662.5 610 L 673 616.5 L 673 618 L 677 618 L 677 620 L 680.5 620 L 683.5 622 L 694.5 623 L 696.5 625 Q 702.3 623.8 703.5 627 L 710.5 627 L 712.5 629 Q 717.3 627.8 718.5 630 L 746 630 L 745.5 634 L 718.5 634 Q 717 636.5 711.5 635 L 709.5 637 L 703.5 637 L 701.5 639 L 695.5 639 L 693.5 641 L 682.5 642 Q 681.3 645 677 644 L 677 646 L 673 646 L 673 648 L 669 648 L 669 649.5 L 656 659 L 653.5 665 Q 651.3 664.3 652 666.5 L 650 671 Q 646.7 669.7 648 674.5 Q 644.8 675.9 646 681 Q 642.5 679.9 644 687.5 Q 641.8 688.8 643 693.5 L 641 695.5 L 641 701.5 L 639 703.5 L 639 710.5 L 637 712.5 L 637 740.5 L 636 743 L 632 743 L 632 741.5 L 631 740.5 L 631 705.5 L 629 703.5 L 629 696 L 627 696 L 627 690 L 625 690 L 625 684 L 623 684 L 623 678 L 621 678 Q 622.3 672.7 619 673.5 L 619 670.5 Q 614.5 659.5 605.5 653 L 595.5 646 L 593 646 Q 594.4 642.3 588.5 644 Q 587.3 641 583 642 L 583 640 L 576.5 640 L 575.5 638 L 568.5 638 Q 566.8 635.2 560.5 637 L 558.5 635 L 531 635 L 531 629.5 L 531.5 629 L 557.5 629 L 558.5 627 L 567.5 627 L 568.5 626 L 575 626 L 575 624 L 581.5 624 L 582 622 Q 588.3 623.5 587.5 620 L 591.5 620 L 599.5 614 L 603 614 L 608.5 607 Q 610.8 607.8 610 605.5 Q 616.1 602.1 618.5 595 L 620 595 L 620 591 L 622 591 L 622 587 L 624 587 L 624 581 L 626 581 L 626 575 L 628 574.5 L 628 568.5 L 630 567.5 L 630 562.5 L 629 559.5 L 631 557.5 L 631 521 Z " /></svg>